<svg width="30" height="26" viewBox="0 0 30 26" fill="none" xmlns="http://www.w3.org/2000/svg">
<path fill-rule="evenodd" clip-rule="evenodd" d="M15 0C23.2759 0 30 5.82759 30 13C30 20.1724 23.2759 26 15 26C6.72414 26 0 20.1724 0 13C0 5.82759 6.72414 0 15 0ZM29.443 13C29.443 6.10345 22.9974 0.517241 15.0398 0.517241C7.08223 0.517241 13.7666 0.551725 13.13 0.620691C13.5279 0.620691 13.9257 0.586208 14.3634 0.586208C21.9629 0.586208 28.13 5.93103 28.13 12.5172C28.13 19.1034 21.9629 24.4483 14.3634 24.4483C6.76392 24.4483 1.23342 19.6552 0.636601 13.5517C0.954904 20.2069 7.28117 25.5172 15.0398 25.5172C22.7984 25.5172 29.443 19.931 29.443 13.0345V13ZM27.5332 12.4828C27.5332 6.17241 21.6048 1.03448 14.3236 1.03448C7.04244 1.03448 13.13 1.03448 12.5729 1.13793C12.931 1.13793 13.2891 1.10345 13.6472 1.10345C20.5703 1.10345 26.2202 5.96552 26.2202 12C26.2202 18.0345 20.6101 22.8966 13.6472 22.8966C6.68435 22.8966 1.71087 18.5517 1.15384 12.9655C1.43236 19.069 7.24138 23.931 14.3634 23.931C21.4854 23.931 27.5729 18.7931 27.5729 12.4828H27.5332ZM13.6472 1.62069C20.252 1.62069 25.6233 6.27586 25.6233 12C25.6233 17.7241 20.252 22.3793 13.6472 22.3793C7.04244 22.3793 1.90981 17.931 1.67109 12.3793C2.18833 17.3793 7.04244 21.3103 12.9708 21.3103C18.8992 21.3103 24.3103 16.8965 24.3103 11.4828C24.3103 6.06897 19.2175 1.65517 12.9708 1.65517C6.72413 1.65517 12.3342 1.65517 12.0159 1.68966C12.5332 1.62069 13.0902 1.58621 13.6472 1.58621V1.62069ZM23.7533 11.5172C23.7533 6.37931 18.939 2.17241 12.9708 2.17241C7.00265 2.17241 11.9761 2.17242 11.4987 2.27586C11.7772 2.27586 12.0159 2.27586 12.2944 2.27586C17.9045 2.27586 22.4403 6.2069 22.4403 11.069C22.4403 15.931 17.9045 19.8621 12.2944 19.8621C6.68435 19.8621 2.70557 16.3793 2.22811 11.931C2.42705 16.931 7.1618 20.931 13.0106 20.931C18.8594 20.931 23.7931 16.7586 23.7931 11.5862L23.7533 11.5172ZM12.2944 2.72414C17.5862 2.72414 21.8435 6.44828 21.8435 11C21.8435 15.5517 17.5464 19.2759 12.2944 19.2759C7.04244 19.2759 2.90451 15.7241 2.74536 11.2759C3.18302 15.1724 7.00265 18.2414 11.618 18.2414C16.2334 18.2414 20.5305 14.7931 20.5305 10.5172C20.5305 6.24138 16.5517 2.79311 11.618 2.79311C6.68435 2.79311 11.1804 2.79311 10.9416 2.79311C11.3793 2.72414 11.817 2.72414 12.2944 2.72414ZM19.9735 10.5172C19.9735 6.51724 16.2334 3.27586 11.618 3.27586C7.00265 3.27586 10.7825 3.27586 10.3846 3.34483C10.5836 3.34483 10.7427 3.34483 10.9416 3.34483C15.1989 3.34483 18.6207 6.34483 18.6207 10C18.6207 13.6552 15.1592 16.6552 10.9416 16.6552C6.72414 16.6552 3.70027 14.0345 3.30239 10.6897C3.42175 14.5862 7.12201 17.7241 11.618 17.7241C16.1141 17.7241 19.9735 14.4828 19.9735 10.4828V10.5172ZM10.9416 3.86207C14.8806 3.86207 18.0637 6.62069 18.0637 10.0345C18.0637 13.4483 14.8806 16.2069 10.9416 16.2069C7.00265 16.2069 3.8992 13.5172 3.81963 10.1724C4.17772 12.9655 6.92308 15.1724 10.2653 15.1724C13.6074 15.1724 16.7507 12.6552 16.7507 9.55172C16.7507 6.44828 13.8462 3.93103 10.2653 3.93103C6.68435 3.93103 9.98674 3.93103 9.86738 3.93103C10.2255 3.89655 10.5836 3.86207 10.9416 3.86207ZM16.1538 9.51724C16.1538 6.68966 13.5279 4.41379 10.2653 4.41379C7.00265 4.41379 9.62864 4.41379 9.31034 4.48276C9.38992 4.48276 9.50928 4.48276 9.58886 4.48276C12.4934 4.48276 14.8409 6.51724 14.8409 9.03448C14.8409 11.5517 12.4934 13.5862 9.58886 13.5862C6.68435 13.5862 4.69496 11.8276 4.37666 9.58621C4.41645 12.3793 7.04244 14.6207 10.2653 14.6207C13.4881 14.6207 16.1538 12.3448 16.1538 9.51724ZM9.58886 4.96552C12.1751 4.96552 14.2838 6.7931 14.2838 9.03448C14.2838 11.2759 12.1751 13.1034 9.58886 13.1034C7.00265 13.1034 4.8939 11.2759 4.8939 9.03448C5.17242 10.7241 6.8435 12.0345 8.91247 12.0345C10.9814 12.0345 12.9708 10.4483 12.9708 8.51724C12.9708 6.58621 11.1406 5 8.91247 5C6.68435 5 8.7931 5 8.75332 5C9.03183 4.96552 9.31034 4.93103 9.58886 4.93103V4.96552ZM12.374 8.55172C12.374 6.89655 10.8223 5.55173 8.91247 5.55173C7.00265 5.55173 5.45093 6.89655 5.45093 8.55172C5.45093 10.2069 7.00265 11.5517 8.91247 11.5517C10.8223 11.5517 12.374 10.2069 12.374 8.55172Z" fill="#F5F5F5"/>
</svg>
